<?xml version="1.0" standalone="no"?>
<!DOCTYPE svg PUBLIC "-//W3C//DTD SVG 20010904//EN"
 "http://www.w3.org/TR/2001/REC-SVG-20010904/DTD/svg10.dtd">
<svg version="1.0" xmlns="http://www.w3.org/2000/svg"
 width="300.000000pt" height="300.000000pt" viewBox="0 0 300.000000 300.000000"
 preserveAspectRatio="xMidYMid meet">

<g transform="translate(0.000000,300.000000) scale(0.100000,-0.100000)"
fill="#000000" stroke="none">
<path d="M1043 1958 c-22 -37 -90 -285 -98 -360 -4 -39 -11 -58 -20 -58 -19 0
-68 65 -100 132 -16 33 -49 78 -80 107 -46 43 -60 51 -93 51 -44 0 -72 -23
-72 -59 0 -12 -6 -32 -14 -44 -7 -12 -19 -51 -25 -87 -7 -36 -19 -86 -27 -112
-9 -26 -13 -52 -9 -58 8 -13 -3 -50 -16 -50 -5 0 -9 4 -9 9 0 8 -78 144 -162
280 -18 29 -43 70 -54 90 -32 53 -71 54 -121 5 -33 -33 -37 -43 -38 -88 0 -50
18 -103 55 -156 25 -37 100 -179 100 -190 0 -6 14 -40 31 -77 47 -103 58 -126
77 -154 9 -15 32 -51 50 -80 39 -62 69 -88 121 -101 84 -22 88 -22 104 8 8 16
17 44 20 62 4 19 16 46 27 61 15 22 21 52 26 135 8 126 6 126 93 -14 42 -70
70 -102 106 -127 26 -19 54 -32 61 -29 7 3 18 -2 24 -10 14 -16 50 -19 50 -4
0 6 17 29 39 51 37 39 38 41 44 137 4 53 8 171 8 262 2 203 10 312 25 317 6 2
19 -18 29 -44 10 -26 36 -86 57 -133 21 -47 44 -98 51 -114 13 -28 10 -37 -56
-165 -38 -75 -73 -140 -77 -146 -16 -20 -40 -125 -40 -172 0 -69 23 -90 77
-72 64 20 104 43 124 69 11 14 30 37 42 52 12 15 34 49 48 75 14 26 30 48 36
50 6 2 33 -24 59 -59 79 -103 106 -118 171 -93 71 27 81 72 33 145 -16 25 -30
56 -30 69 0 13 -25 62 -57 108 l-56 84 39 57 c22 31 48 77 58 102 10 25 36 84
57 132 22 47 39 94 39 102 0 9 5 16 10 16 6 0 10 -7 10 -15 0 -45 95 -200 172
-281 l39 -41 -22 -39 c-66 -118 -219 -438 -219 -460 0 -24 19 -54 35 -54 8 0
17 -11 21 -25 10 -39 34 -47 90 -28 27 9 55 21 63 26 15 13 80 112 88 136 6
16 120 257 151 319 22 43 32 41 32 -7 0 -73 90 -192 177 -235 21 -10 46 -22
55 -27 34 -17 88 -10 122 16 18 14 39 25 47 25 24 0 175 152 193 195 9 22 21
48 26 57 6 10 10 24 10 32 0 7 7 19 15 26 8 7 15 19 15 27 0 18 -56 11 -140
-19 -97 -34 -173 -49 -230 -46 l-55 3 1 41 c0 31 10 53 41 95 70 93 112 127
260 204 83 44 92 52 98 83 9 48 -8 65 -59 59 -143 -17 -294 -105 -434 -251
-45 -48 -82 -80 -82 -72 0 8 5 18 10 21 6 3 10 15 10 25 0 16 44 125 70 172
14 24 13 88 -1 88 -6 0 -20 -11 -31 -25 -16 -21 -22 -23 -38 -13 -15 10 -26 9
-54 -4 -34 -17 -108 -100 -129 -145 -20 -44 -37 -36 -137 61 -103 100 -134
116 -184 98 -32 -13 -46 -4 -46 29 0 9 -9 24 -20 34 -24 22 -21 24 -141 -96
-48 -47 -99 -107 -114 -133 -15 -25 -33 -46 -40 -46 -7 0 -24 17 -36 38 -13
20 -25 39 -29 42 -3 3 -23 31 -45 63 -37 56 -61 75 -120 97 -22 8 -30 6 -51
-15 l-25 -25 -27 31 c-15 18 -31 38 -35 45 -10 17 -33 18 -44 2z"/>
</g>
</svg>
